<?xml version="1.0" encoding="UTF-8"?>
<svg width="128px" height="128px" viewBox="0 0 128 128" version="1.1" xmlns="http://www.w3.org/2000/svg" xmlns:xlink="http://www.w3.org/1999/xlink">
    <!-- Generator: Sketch 52.5 (67469) - http://www.bohemiancoding.com/sketch -->
    <title>cubes</title>
    <desc>Created with Sketch.</desc>
    <g id="Page-1" stroke="none" stroke-width="1" fill="none" fill-rule="evenodd">
        <g id="cubes">
            <path d="M44.9228515,0 C38.8154298,0 33.845703,4.96875 33.845703,11.0771485 L33.845703,49.2304688 C33.845703,55.3388672 38.8154298,60.3076172 44.9228515,60.3076172 L83.0771485,60.3076172 C89.1845703,60.3076172 94.154297,55.3388672 94.154297,49.2304688 L94.154297,11.0771485 C94.154297,4.96875 89.1845703,0 83.0771485,0 L44.9228515,0 Z" id="Path" fill="#FFD37D"></path>
            <path d="M116.922851,67.6923827 L78.7695312,67.6923827 C72.6611328,67.6923827 67.6923828,72.6611327 67.6923828,78.7695312 L67.6923828,116.922851 C67.6923828,123.03125 72.6611328,128 78.7695312,128 L116.922852,128 C123.03125,128 128,123.03125 128,116.922851 L128,78.7695312 C128,72.6611327 123.03125,67.6923827 116.922852,67.6923827 Z" id="Path" fill="#79B2FF"></path>
            <path d="M49.2304688,67.6923827 L11.0771485,67.6923827 C4.96875,67.6923827 0,72.6611327 0,78.7695312 L0,116.922851 C0,123.03125 4.96875,128 11.0771485,128 L49.2304688,128 C55.3388672,128 60.3076172,123.03125 60.3076172,116.922851 L60.3076172,78.7695312 C60.3076172,72.6611327 55.3388672,67.6923827 49.2304688,67.6923827 Z" id="Path" fill="#FF5899"></path>
            <path d="M46.689453,95.2353515 L32.7646485,81.310547 C31.3232422,79.8691405 28.9853515,79.8691405 27.5429687,81.310547 L13.6191405,95.2353515 C12.1767577,96.6767577 12.1767577,99.015625 13.6191405,100.457031 L27.5429687,114.381836 C28.263672,115.102539 29.2089845,115.46289 30.154297,115.46289 C31.0986327,115.46289 32.0439452,115.102539 32.7646485,114.381836 L46.689453,100.457031 C48.1308595,99.015625 48.1308595,96.6767577 46.689453,95.2353515 Z" id="Path" fill="#FF7BAF"></path>
            <path d="M49.2304688,67.6923827 L30.154297,67.6923827 L30.154297,128 L49.2304688,128 C55.3388673,128 60.3076173,123.03125 60.3076173,116.922851 L60.3076173,78.7695312 C60.3076173,72.6611327 55.3388673,67.6923827 49.2304688,67.6923827 Z" id="Path" fill="#FF4488"></path>
            <path d="M46.689453,95.2353515 L32.7646485,81.310547 C32.0439453,80.5898438 31.0986328,80.2294922 30.154297,80.2294922 L30.154297,115.462891 C31.0986328,115.462891 32.0439453,115.102539 32.7646485,114.381836 L46.689453,100.457031 C48.1308595,99.015625 48.1308595,96.6767578 46.689453,95.2353515 Z" id="Path" fill="#E42A6E"></path>
            <path d="M97.845703,81.845703 C89.0234375,81.845703 81.845703,89.0234375 81.845703,97.845703 C81.845703,106.668945 89.0234375,113.845703 97.845703,113.845703 C106.668945,113.845703 113.845703,106.668945 113.845703,97.845703 C113.845703,89.0234375 106.668945,81.845703 97.845703,81.845703 Z" id="Path" fill="#A5CBFF"></path>
            <path d="M116.922851,67.6923827 L97.845703,67.6923827 L97.845703,128 L116.922851,128 C123.03125,128 128,123.03125 128,116.922851 L128,78.7695312 C128,72.6611327 123.03125,67.6923827 116.922851,67.6923827 Z" id="Path" fill="#4C98FF"></path>
            <path d="M97.845703,81.845703 L97.845703,113.845703 C106.668945,113.845703 113.845703,106.668945 113.845703,97.845703 C113.845703,89.0234375 106.668945,81.845703 97.845703,81.845703 Z" id="Path" fill="#3686F3"></path>
            <path d="M79.6103515,40.810547 L67.3027345,16.1953125 C66.6767577,14.944336 65.3984375,14.154297 64,14.154297 C62.6015625,14.154297 61.3232422,14.944336 60.6972655,16.1953125 L48.3896485,40.810547 C47.8173827,41.955078 47.8789062,43.314453 48.5517577,44.4023438 C49.2246095,45.491211 50.4121095,46.154297 51.6923827,46.154297 L76.3076172,46.154297 C77.5878905,46.154297 78.7753905,45.491211 79.4482422,44.4023438 C80.1210937,43.314453 80.1826172,41.955078 79.6103515,40.810547 Z" id="Path" fill="#FFE5B1"></path>
            <path d="M83.0771485,0 L64,0 L64,60.3076172 L83.0771485,60.3076172 C89.1845702,60.3076172 94.154297,55.3388672 94.154297,49.2304688 L94.154297,11.0771485 C94.154297,4.96875 89.1845702,0 83.0771485,0 Z" id="Path" fill="#FFC044"></path>
            <path d="M79.6103515,40.810547 L67.3027345,16.1953125 C66.6767577,14.944336 65.3984375,14.154297 64,14.154297 L64,46.154297 L76.3076172,46.154297 C77.5878905,46.154297 78.7753905,45.491211 79.4482422,44.4023438 C80.1210937,43.314453 80.1826172,41.955078 79.6103515,40.810547 Z" id="Path" fill="#F3AF28"></path>
        </g>
    </g>
</svg>