<?xml version="1.0" encoding="UTF-8"?>
<svg width="128px" height="128px" viewBox="0 0 128 128" version="1.1" xmlns="http://www.w3.org/2000/svg" xmlns:xlink="http://www.w3.org/1999/xlink">
    <!-- Generator: Sketch 52.5 (67469) - http://www.bohemiancoding.com/sketch -->
    <title>Group</title>
    <desc>Created with Sketch.</desc>
    <g id="Page-1" stroke="none" stroke-width="1" fill="none" fill-rule="evenodd">
        <g id="Group">
            <g id="blocks">
                <path d="M44.9228515,0 C38.8154298,0 33.845703,4.96875 33.845703,11.0771485 L33.845703,49.2304688 C33.845703,55.3388672 38.8154298,60.3076172 44.9228515,60.3076172 L83.0771485,60.3076172 C89.1845703,60.3076172 94.154297,55.3388672 94.154297,49.2304688 L94.154297,11.0771485 C94.154297,4.96875 89.1845703,0 83.0771485,0 L44.9228515,0 Z" id="Path" fill="#4AB3F4"></path>
                <path d="M116.922851,67.6923827 L78.7695312,67.6923827 C72.6611328,67.6923827 67.6923828,72.6611327 67.6923828,78.7695312 L67.6923828,116.922851 C67.6923828,123.03125 72.6611328,128 78.7695312,128 L116.922852,128 C123.03125,128 128,123.03125 128,116.922851 L128,78.7695312 C128,72.6611327 123.03125,67.6923827 116.922852,67.6923827 L116.922851,67.6923827 Z" id="Path" fill="#228FC9"></path>
                <path d="M49.2304688,67.6923827 L11.0771485,67.6923827 C4.96875,67.6923827 0,72.6611327 0,78.7695312 L0,116.922851 C0,123.03125 4.96875,128 11.0771485,128 L49.2304688,128 C55.3388672,128 60.3076172,123.03125 60.3076172,116.922851 L60.3076172,78.7695312 C60.3076172,72.6611327 55.3388672,67.6923827 49.2304688,67.6923827 Z" id="Path" fill="#333333"></path>
                <path d="M49.2304688,67.6923827 L30.154297,67.6923827 L30.154297,128 L49.2304688,128 C55.3388673,128 60.3076173,123.03125 60.3076173,116.922851 L60.3076173,78.7695312 C60.3076173,72.6611327 55.3388673,67.6923827 49.2304688,67.6923827 Z" id="Path" fill="#222222"></path>
                <path d="M116.922851,67.6923827 L97.845703,67.6923827 L97.845703,128 L116.922851,128 C123.03125,128 128,123.03125 128,116.922851 L128,78.7695312 C128,72.6611327 123.03125,67.6923827 116.922851,67.6923827 Z" id="Path" fill="#0177B5"></path>
                <path d="M83.0771485,0 L64,0 L64,60.3076172 L83.0771485,60.3076172 C89.1845702,60.3076172 94.154297,55.3388672 94.154297,49.2304688 L94.154297,11.0771485 C94.154297,4.96875 89.1845702,0 83.0771485,0 Z" id="Path" fill="#1EA1F1"></path>
            </g>
            <g id="github-big-logo" transform="translate(17.000000, 84.000000)" fill="#FFFFFF">
                <path d="M23.8309603,12.5696242 C23.9421921,11.8657829 24.0115866,11.0940501 24.0290605,10.2286848 C24.0223591,6.51807933 22.246096,5.20509395 21.9043215,4.58956159 C22.4076827,1.77807933 21.8209603,0.499227557 21.5480793,0.061440501 C20.5416075,-0.295803758 18.0464092,0.98348643 16.6830689,1.8840501 C14.4602505,1.23338205 9.76277662,1.29688935 8.0011691,2.05246347 C4.7508977,-0.274885177 3.03181628,0.0799791232 3.03181628,0.0799791232 C3.03181628,0.0799791232 1.92043841,2.072881 2.7380167,4.98839248 C1.66860125,6.3511691 0.871503132,7.31467641 0.871503132,9.87037578 C0.871503132,10.4824635 0.909519833,11.0608559 0.974029228,11.6173278 C1.89501044,16.4597912 5.73206681,18.5488935 9.5011691,18.9091441 C8.93398747,19.3401044 8.25306889,20.1556785 8.15887265,21.1007098 C7.44620042,21.5614823 6.01265136,21.7137996 4.89789144,21.3633194 C3.3359499,20.8697912 2.7380167,17.7767223 0.398956159,18.2179541 C-0.107160752,18.3126514 -0.00657620042,18.6464718 0.4317119,18.9310647 C1.1443215,19.3932777 1.81546973,19.9678497 2.33279749,21.1973486 C2.73012526,22.1413152 3.56580376,23.8267015 6.20793319,23.8267015 C7.25680585,23.8267015 7.99146138,23.7027557 7.99146138,23.7027557 C7.99146138,23.7027557 8.0114405,26.108142 8.0114405,27.0462839 C8.0114405,28.1259081 6.55440501,28.4290397 6.55440501,28.9469937 C6.55440501,29.1529854 7.03665971,29.1725261 7.42421712,29.1725261 C8.19012526,29.1725261 9.7836952,28.534572 9.7836952,27.4124217 C9.7836952,26.5207516 9.79791232,23.5242589 9.79791232,22.9994781 C9.79791232,21.8529019 10.41238,21.4878288 10.41238,21.4878288 C10.41238,21.4878288 10.4875992,27.6085177 10.2645094,28.4291023 C10.0029019,29.3941127 9.52897704,29.2570146 9.52897704,29.6864718 C9.52897704,30.3273695 11.4447808,29.8431733 12.0802296,28.4403132 C12.5718163,27.3445929 12.3516701,21.3423382 12.3516701,21.3423382 L12.8641754,21.33119 C12.8641754,21.33119 12.8700626,24.080167 12.8524008,25.3360334 C12.8339248,26.6368058 12.6997077,28.2812317 13.4723173,29.0573486 C13.9794363,29.5677871 15.533048,30.4634656 15.533048,29.6449478 C15.533048,29.1705846 14.4450939,28.7785804 14.4450939,27.4934029 L14.4450939,21.5730689 C15.1060334,21.5730689 15.2426305,23.5191232 15.2426305,23.5191232 L15.4808768,27.1345929 C15.4808768,27.1345929 15.3226722,28.453904 16.906096,29.0044885 C17.4650731,29.2002714 18.6608768,29.2535073 18.7169311,28.9248852 C18.7731106,28.5954489 17.2770564,28.108309 17.2628392,27.0871816 C17.2551357,26.465261 17.2907098,26.1012526 17.2907098,23.3961169 C17.2907098,20.6924843 16.9275157,19.6923382 15.6618789,18.8953027 C19.3320877,18.518643 23.1442171,16.8795407 23.8309603,12.5696242 Z" id="Path"></path>
            </g>
            <g id="linkedin-letters" transform="translate(83.000000, 82.000000)" fill="#FFFFFF">
                <rect id="Rectangle" x="0.387428571" y="9.77821429" width="6.72971429" height="20.2094286"></rect>
                <path d="M29.203,11.6242143 C27.7893571,10.0810714 25.9196429,9.30935714 23.595,9.30935714 C22.7385,9.30935714 21.9599286,9.41471429 21.2596429,9.62557143 C20.5595714,9.83628571 19.9682857,10.1319286 19.4855,10.5126429 C19.003,10.8933571 18.6187143,11.2467857 18.3334286,11.5729286 C18.0621429,11.8827143 17.7968571,12.2435714 17.538,12.6517857 L17.538,9.77807143 L10.8283571,9.77807143 L10.8489286,10.7570714 C10.8627143,11.4098571 10.8695,13.4218571 10.8695,16.7933571 C10.8695,20.1651429 10.8559286,24.5631429 10.8286429,29.9877857 L17.538,29.9877857 L17.538,18.7101429 C17.538,18.0169286 17.6123571,17.4664286 17.7622143,17.0582143 C18.0479286,16.3645 18.4791429,15.7837143 19.0572857,15.3148571 C19.6353571,14.8454286 20.3522857,14.6109286 21.2090714,14.6109286 C22.3779286,14.6109286 23.2381429,15.0153571 23.7888571,15.8242857 C24.3393571,16.6331429 24.6146429,17.7514286 24.6146429,19.179 L24.6146429,29.9871429 L31.324,29.9871429 L31.324,18.4045714 C31.3235,15.4268571 30.6170714,13.1668571 29.203,11.6242143 Z" id="Path"></path>
                <path d="M3.79307143,0.0505714286 C2.66478571,0.0505714286 1.75057143,0.3805 1.05021429,1.03971429 C0.349928571,1.69907143 0,2.5315 0,3.53778571 C0,4.53 0.339857143,5.35957143 1.01964286,6.02557143 C1.69921429,6.69164286 2.59664286,7.02485714 3.71142857,7.02485714 L3.75221429,7.02485714 C4.89435714,7.02485714 5.81557143,6.69192857 6.51564286,6.02557143 C7.21571429,5.35957143 7.55892857,4.53028571 7.54542857,3.53778571 C7.53185714,2.53157143 7.18492857,1.69907143 6.50535714,1.03971429 C5.82585714,0.380214286 4.92142857,0.0505714286 3.79307143,0.0505714286 Z" id="Path"></path>
            </g>
            <g id="twitter-logo-silhouette" transform="translate(46.000000, 15.000000)" fill="#FFFFFF">
                <path d="M36.8674699,3.56975904 C35.5105422,4.1710241 34.0545783,4.57879518 32.5248193,4.76084337 C34.0868072,3.82548193 35.2824699,2.34186747 35.8491566,0.579457831 C34.3839759,1.44566265 32.7666867,2.07463855 31.0434337,2.41560241 C29.663494,0.943493976 27.7006627,0.0265662651 25.5235542,0.0265662651 C21.3468072,0.0265662651 17.960241,3.41313253 17.960241,7.58759036 C17.960241,8.17963855 18.0270482,8.75789157 18.1560843,9.31084337 C11.8713855,8.99518072 6.29855422,5.98415663 2.56873494,1.40879518 C1.91674699,2.52385542 1.54584337,3.82313253 1.54584337,5.21006024 C1.54584337,7.83409639 2.88204819,10.1493976 4.90939759,11.5039759 C3.66993976,11.4625301 2.50421687,11.1215663 1.4836747,10.5548193 L1.4836747,10.6492771 C1.4836747,14.3122892 4.09156627,17.3693976 7.54951807,18.0651807 C6.91596386,18.2356627 6.24789157,18.3301205 5.55674699,18.3301205 C5.06837349,18.3301205 4.59608434,18.281747 4.13301205,18.1895783 C5.09596386,21.1960241 7.88819277,23.3822892 11.1964458,23.4422289 C8.60927711,25.4695783 5.34710843,26.6744578 1.80391566,26.6744578 C1.19343373,26.6744578 0.592108434,26.6375904 6.02409639e-05,26.5707831 C3.34746988,28.720241 7.32150602,29.973494 11.5927108,29.973494 C25.505241,29.973494 33.1100602,18.4499398 33.1100602,8.45614458 L33.0846988,7.47704819 C34.5706024,6.41722892 35.8560843,5.08566265 36.8674699,3.56975904 Z" id="Path"></path>
            </g>
        </g>
    </g>
</svg>