<?xml version="1.0" encoding="UTF-8"?>
<svg width="128px" height="128px" viewBox="0 0 128 128" version="1.1" xmlns="http://www.w3.org/2000/svg" xmlns:xlink="http://www.w3.org/1999/xlink">
    <!-- Generator: Sketch 52.5 (67469) - http://www.bohemiancoding.com/sketch -->
    <title>crane</title>
    <desc>Created with Sketch.</desc>
    <g id="Page-1" stroke="none" stroke-width="1" fill="none" fill-rule="evenodd">
        <g id="crane">
            <path d="M112.901559,63.8762183 C112.901559,65.9454191 114.576023,67.6189083 116.644249,67.6189083 C118.71345,67.6189083 120.38694,65.9454191 120.38694,63.8762183 L120.38694,29.9434697 L116.644249,22.4580895 L112.901559,29.9434697 L112.901559,63.8762183 Z" id="Path" fill="#F4DC94"></path>
            <path d="M41.5428851,90.0750487 L41.5428851,105.044834 L20.9590643,112.530214 L19.0877193,111.856725 L0.124756335,105.044834 L0.124756335,93.8177387 C0.124756335,91.7212474 1.7709551,90.0750487 3.86744639,90.0750487 L41.5428851,90.0750487 Z" id="Path" fill="#E68A44"></path>
            <polygon id="Path" fill="#E27726" points="41.5428851 90.0750487 41.5428851 105.044834 20.9590643 112.530214 19.0877193 111.856725 19.0877193 90.0750487"></polygon>
            <polygon id="Path" fill="#CB671B" points="0.124756335 105.044834 41.5428851 105.044834 41.5428851 124.007797 0.124756335 124.007797"></polygon>
            <polygon id="Path" fill="#BC5F19" points="19.0877193 105.044834 41.5428851 105.044834 41.5428851 124.007797 19.0877193 124.007797"></polygon>
            <path d="M41.5428851,127.750487 C39.4746588,127.750487 37.800195,126.076023 37.800195,124.007797 L37.800195,26.2007796 C37.800195,24.1325536 39.4746588,22.4580895 41.5428851,22.4580895 C43.6120856,22.4580895 45.2855751,24.1325536 45.2855751,26.2007796 L45.2855751,124.007797 C45.2855751,126.076023 43.6120856,127.750487 41.5428851,127.750487 Z" id="Path" fill="#D5D8E5"></path>
            <path d="M63.9990254,127.750487 C61.9298246,127.750487 60.2563353,126.076023 60.2563353,124.007797 L60.2563353,26.2007796 C60.2563353,24.1325536 61.9298246,22.4580895 63.9990254,22.4580895 C66.0672514,22.4580895 67.7407409,24.1325536 67.7407409,26.2007796 L67.7407409,124.007797 C67.7407409,126.076023 66.0672514,127.750487 63.9990254,127.750487 Z" id="Path" fill="#AEB2C7"></path>
            <path d="M116.644249,105.044834 C110.453216,105.044834 105.417154,100.008772 105.417154,93.8177387 C105.417154,91.7485381 107.090643,90.0750487 109.159844,90.0750487 C111.22807,90.0750487 112.901559,91.7485381 112.901559,93.8177387 C112.901559,95.8820663 114.579922,97.5604288 116.644249,97.5604288 C118.709552,97.5604288 120.38694,95.8820663 120.38694,93.8177387 C120.38694,91.7524365 118.709552,90.0750487 116.644249,90.0750487 C114.576023,90.0750487 112.901559,88.4005849 112.901559,86.3323586 L112.901559,78.8469785 C112.901559,76.7787525 114.576023,75.1042884 116.644249,75.1042884 C118.71345,75.1042884 120.38694,76.7787525 120.38694,78.8469785 L120.38694,83.2290448 C124.743665,84.7748539 127.87232,88.9376217 127.87232,93.8177387 C127.87232,100.008772 122.836257,105.044834 116.644249,105.044834 Z" id="Path" fill="#F4DC94"></path>
            <path d="M66.6179338,23.5818714 L52.7709552,9.73391819 L44.1627681,1.12573106 C43.1150097,0.00292398908 41.5428851,-0.296296296 40.1208577,0.302144374 C38.6988303,0.901559392 37.800195,2.24853807 37.800195,3.7456141 L37.800195,26.2007796 C37.800195,28.2972709 39.4463938,29.9434697 41.5428851,29.9434697 L63.9990254,29.9434697 C65.4961014,29.9434697 66.8430799,29.0458089 67.4424951,27.6237818 C68.039961,26.2007796 67.7407409,24.6286549 66.6179338,23.5818714 Z M45.2855751,22.4580895 L45.2855751,12.8031189 L54.9415203,22.4580895 L45.2855751,22.4580895 Z" id="Shape" fill="#D5D8E5" fill-rule="nonzero"></path>
            <path d="M52.7709552,87.0808966 L48.2797272,90.0750487 L52.7709552,93.0692007 L66.0945418,101.90156 C67.1423002,102.650098 67.7407409,103.772905 67.7407409,105.044834 C67.7407409,106.317739 67.1423002,107.440546 66.0945418,108.189084 L52.7709552,117.096491 L43.6393763,123.408382 C42.9649122,123.782651 42.2914231,124.007797 41.5428851,124.007797 C40.346004,124.007797 39.1481483,123.408382 38.3996103,122.361599 C37.2768032,120.639376 37.7251461,118.069201 39.4473684,116.87232 L52.7709552,108.039961 L57.2621833,105.044834 L52.7709552,102.050682 L39.4473684,93.2183235 C38.3996103,92.4697855 37.800195,91.3469784 37.800195,90.0750487 C37.800195,88.8021443 38.3996103,87.6793373 39.4473684,86.9317739 L52.7709552,78.0984405 L57.2621833,75.1042884 L52.7709552,72.1101364 L39.4473684,63.2777778 C38.3996103,62.5292398 37.800195,61.4064328 37.800195,60.1335282 C37.800195,58.8615984 38.3996103,57.4892788 39.4473684,56.7407407 L52.7709552,47.9083819 L56.8128654,45.2134502 L52.7709552,42.9678362 L39.67154,35.5575047 C37.8752437,34.5097467 37.2768032,32.2641326 38.2495127,30.4678363 C39.297271,28.6715399 41.5428851,27.997076 43.4142301,29.0458089 L52.7709552,34.2846004 L65.8703704,41.6198832 C66.9931775,42.2943469 67.6666665,43.4912282 67.7417155,44.7641326 C67.8167641,46.0370369 67.1423002,47.3089669 66.0945418,48.0575049 L52.7709552,56.8898635 L48.2797272,60.1335282 L52.7709552,63.1276802 L66.0945418,71.9610136 C67.1423002,72.7085771 67.7417155,73.8323587 67.7417155,75.1042884 C67.7417155,76.3762182 67.1423002,77.4990252 66.0945418,78.2475632 L52.7709552,87.0808966 Z" id="Path" fill="#CED0DB"></path>
            <path d="M22.8294348,26.2007796 L7.61013645,26.2007796 L0.124756335,29.9434697 L0.124756335,48.65692 C0.124756335,50.7251462 1.79824555,52.39961 3.86744639,52.39961 L26.5721248,52.39961 C28.6413254,52.39961 30.3148149,50.7251462 30.3148149,48.65692 L30.3148149,29.9434697 L22.8294348,26.2007796 Z" id="Path" fill="#FF8700"></path>
            <g id="Group" transform="translate(52.647173, 9.730994)" fill="#C1C4D5">
                <path d="M14.794347,17.8918128 C14.1959064,19.3148148 12.8489279,20.2124755 11.3508773,20.2124755 L0.123781739,20.2124755 L0.123781739,12.7270954 L2.29337226,12.7270954 L0.123781739,10.5565303 L0.123781739,0.00292403899 L13.9707604,13.8508773 C15.0935674,14.8976608 15.3927875,16.4697855 14.794347,17.8918128 Z" id="Path"></path>
                <path d="M15.0935674,95.3138402 C15.0935674,96.5867445 14.4951267,97.7095515 13.4473684,98.4580895 L0.123781739,107.365497 L0.123781739,98.3079922 L4.61403521,95.3138402 L0.123781739,92.3196881 L0.123781739,83.337232 L13.4473684,92.1705654 C14.4951267,92.9191034 15.0935674,94.0419104 15.0935674,95.3138402 Z" id="Path"></path>
                <path d="M15.0935674,65.3732943 C15.0935674,66.645224 14.4951267,67.7690059 13.4473684,68.5165691 L0.123781739,77.3499025 L0.123781739,68.3674463 L4.61403521,65.3732943 L0.123781739,62.3791422 L0.123781739,53.3966861 L13.4473684,62.2290449 C14.4951267,62.9785575 15.0935674,64.1013645 15.0935674,65.3732943 Z" id="Path"></path>
                <path d="M15.0935674,35.0331384 C15.168616,36.3060428 14.4951267,37.5789474 13.4473684,38.3265108 L0.123781739,47.1598439 L0.123781739,38.1773878 L4.16569188,35.4824561 L0.123781739,33.236842 L0.123781739,24.5545808 L13.2231969,31.8898636 C14.346004,32.5633527 15.0185185,33.7612086 15.0935674,35.0331384 Z" id="Path"></path>
            </g>
            <path d="M127.87232,124.007797 C127.87232,126.104289 126.226121,127.750487 124.12963,127.750487 L3.86744639,127.750487 C1.7709551,127.750487 0.124756335,126.104289 0.124756335,124.007797 C0.124756335,121.911306 1.7709551,120.265107 3.86744639,120.265107 L124.12963,120.265107 C126.226121,120.265107 127.87232,121.911306 127.87232,124.007797 Z" id="Path" fill="#FDBF00"></path>
            <path d="M127.87232,124.007797 C127.87232,126.104289 126.226121,127.750487 124.12963,127.750487 L52.7709552,127.750487 L52.7709552,120.265107 L124.12963,120.265107 C126.226121,120.265107 127.87232,121.911306 127.87232,124.007797 Z" id="Path" fill="#FF9F00"></path>
            <path d="M117.392787,15.0487329 L52.7709552,2.1734894 L42.2914231,0.0779727096 C41.9171541,0.00292398908 40.6442495,0.0779727096 40.1208577,0.302144374 L2.44541904,15.2729046 C1.02339169,15.7962964 0.124756335,17.2183235 0.124756335,18.7163743 L0.124756335,29.9434697 L120.38694,29.9434697 L120.38694,18.7163743 C120.38694,16.9191034 119.11501,15.4220274 117.392787,15.0487329 Z M112.901559,22.4580895 L7.61013645,22.4580895 L7.61013645,21.2612087 L41.9171541,7.6374269 L52.7709552,9.80799227 L112.901559,21.7846005 L112.901559,22.4580895 Z" id="Shape" fill="#D5D8E5" fill-rule="nonzero"></path>
            <path d="M120.38694,18.7153995 L120.38694,29.9434697 L52.7709552,29.9434697 L52.7709552,22.4580895 L112.901559,22.4580895 L112.901559,21.7846005 L52.7709552,9.80799227 L52.7709552,2.1734894 L117.392787,15.0487329 C119.11501,15.4220274 120.38694,16.9191034 120.38694,18.7153995 Z" id="Path" fill="#C1C4D5"></path>
            <path d="M124.12963,82.5896686 L109.159844,82.5896686 C107.090643,82.5896686 105.417154,80.9152047 105.417154,78.8469785 L105.417154,63.8762183 C105.417154,61.8079923 107.090643,60.1335282 109.159844,60.1335282 L124.12963,60.1335282 C126.19883,60.1335282 127.87232,61.8079923 127.87232,63.8762183 L127.87232,78.8469785 C127.87232,80.9152047 126.19883,82.5896686 124.12963,82.5896686 Z" id="Path" fill="#FDBF00"></path>
        </g>
    </g>
</svg>